<?xml version="1.0" encoding="UTF-8"?>
<svg width="2530px" height="4003px" viewBox="0 0 2530 4003" version="1.1" xmlns="http://www.w3.org/2000/svg" xmlns:xlink="http://www.w3.org/1999/xlink">
    <!-- Generator: Sketch 63.1 (92452) - https://sketch.com -->
    <title>Grucifix</title>
    <desc>Created with Sketch.</desc>
    <g id="Page-1" stroke="none" stroke-width="1" fill="none" fill-rule="evenodd">
        <g id="Colors" transform="translate(-783.000000, -47.000000)">
            <g id="Grucifix" transform="translate(783.000000, 47.000000)">
                <g id="Bottom" transform="translate(1065.000000, 2736.000000)" fill="#ECD030">
                    <path d="M4.5777875e-12,-5.52305208e-12 L427.181178,2.82638056 L200.067693,1266.56729 L4.5777875e-12,-5.52305208e-12 Z M200.067693,339.31433 L139.160178,397.147855 L195.684257,760.151207 L200.067693,339.31433 Z M247.752159,339.31433 L240.45945,339.31433 L242.852741,744.102548 L247.752159,734.723486 L303.766637,407.290697 L247.752159,339.31433 Z M80.9887004,52.9015634 L128.497171,334.329592 L189.738133,248.601588 L189.738133,212.031125 L80.9887004,52.9015634 Z M359.781115,49.3745645 L247.752159,206.444442 L247.752159,256.726114 L312.36176,328.720613 L359.781115,49.3745645 Z" id="Combined-Shape"></path>
                </g>
                <g id="Middel" transform="translate(0.000000, 1434.000000)" fill="#ECD030">
                    <path d="M1055.25605,-2.76275772e-12 L1309.7392,200.507013 L1611.35265,1.48941633 L1722.65029,460.613842 L2529.93853,774.817434 L1848.70921,981.30035 L1927.02726,1306.06417 L647.866914,1302.76085 L753.941391,955.939577 L2.76158012e-12,731.053515 L909.898566,443.895103 L1055.25605,-2.76275772e-12 Z M1109.47324,194.733871 L843.452805,1143.29079 L1767.80394,1147.61087 L1640.85632,611.855175 L1109.47324,194.733871 Z M1746.35868,558.603137 L1834.27793,889.371075 L2305.06731,765.022034 L1746.35868,558.603137 Z M781.957575,562.627219 L256.99574,726.01545 L748.616055,862.036016 L814.283231,766.654343 L849.705287,643.813131 L781.957575,562.627219 Z M1517.13313,171.032117 L1399.40263,259.38213 L1573.4735,393.927607 L1575.39244,375.895561 L1517.13313,171.032117 Z" id="Combined-Shape"></path>
                </g>
                <g id="Top" transform="translate(1138.000000, 0.000000)" fill="#ECD030">
                    <path d="M204.984766,1.15619136e-12 L369.264711,1146.80806 L174.662789,1648.89371 L0,1137.35015 L204.984766,1.15619136e-12 Z M168.680954,1282.40396 L105.2956,1282.40396 L163.928307,1480.99432 L168.680954,1282.40396 Z M265.976986,1282.40396 L197.006404,1282.40396 L195.77451,1457.4283 L265.976986,1282.40396 Z M181.76928,329.13441 L49.4021692,1104.13241 L64.3139789,1152.42858 L169.190847,1152.42858 L181.76928,329.13441 Z M213.180776,345.739851 L201.604277,1151.13787 L320.307632,1149.4299 L328.638063,1135.14399 L213.180776,345.739851 Z" id="TOP"></path>
                </g>
                <g id="G" transform="translate(603.000000, 1428.000000)" fill="#57C6B5">
                    <polygon points="688.650167 435.745872 640.571471 704.082832 364.671344 764.803843 640.571471 808.900567 685.138696 1213.80251 736.898704 804.859023 1186.44497 804.859023 678.021573 1373.3047 168.863265 709.555916 946.673485 167.240266 1089.10194 670.494523 1009.55417 1.52837217e-13 -4.26034019e-13 692.169357 675.963933 1553.29378 1305.45679 849.536778 1305.45679 709.555916 736.898704 709.555916"></polygon>
                </g>
            </g>
        </g>
    </g>
</svg>